<?xml version="1.0" encoding="utf-8"?>
<!-- Generator: Adobe Illustrator 14.0.0, SVG Export Plug-In . SVG Version: 6.00 Build 43363)  -->
<!DOCTYPE svg PUBLIC "-//W3C//DTD SVG 1.1//EN" "http://www.w3.org/Graphics/SVG/1.1/DTD/svg11.dtd">
<svg version="1.1" id="Layer_1" xmlns="http://www.w3.org/2000/svg" xmlns:xlink="http://www.w3.org/1999/xlink" x="0px" y="0px"
	 width="128.415px" height="19.985px" viewBox="0 0 128.415 19.985" enable-background="new 0 0 128.415 19.985"
	 xml:space="preserve">
<g id="r36ibr_11_">
	<g>
		<g>
			<path fill-rule="evenodd" clip-rule="evenodd" d="M127.979,5.153c-0.225-0.414-2.346,0.508-1.434-0.93
				c-2.82-0.182-4.158,1.086-5.895,1.965c1.209,1.477,3.154,2.199,4.771,3.258c0.418,0.854,0.615,1.928,0.516,3.309
				c0.188,0.488-0.49,0.553-0.703,0.721c-0.266,0.209-0.434,0.508-0.701,0.717c-0.236,0.186-0.58,0.248-0.939,0.486
				c-0.678,0.443-1.104,1.109-2.596,0.979c-1.275,1.355-2.689,1.482-4.256,0.523c-0.961-0.588-1.479-0.973-1.688-2.348
				c-0.096-0.654,0.088-0.898,0.223-1.424c1.186-0.098,1.174,1.033,2.143,1.16c1.912-0.398,3.434-1.176,4.713-2.189
				c-0.742-1.637-2.48-2.256-3.83-3.271c-0.953-2.41-1.002-3.77,0.885-5.219c1.203-0.922,3.934-2.064,6.848-1.738
				c1.002-0.068,1.213,0.676,1.906,0.924 M127.969,4.444c-0.066-0.066-0.357,0.117-0.234,0.238
				C127.801,4.747,128.094,4.563,127.969,4.444z M120.292,15.901c-0.184,0.057-0.467,0.012-0.473,0.24
				C120.002,16.089,120.288,16.132,120.292,15.901z"/>
			<path fill-rule="evenodd" clip-rule="evenodd" d="M6.929,0.683C7.771,1.167,8.869,2.437,8.15,3.747
				c0.561,0.557,2.41-0.693,3.076-0.039c0.295,0.285-0.039,0.535,0.479,0.232c1.365-0.803,4.234,1.242,4.068,3.502
				c-0.092,1.24-1.049,1.439-1.629,2.625c-0.42,0.309-0.422-0.463-0.479-0.467c-0.625-0.059-0.906,1.09-1.164,1.672
				c-0.834,0.174-1.256,0.979-1.877,1.441c-1.848,1.377-4.039,2.506-6.35,3.629c-0.27,0.281-0.26,0.84-0.221,1.422
				c-0.744-0.324-1.416,0.26-2.131,0.025C0.861,17.44,0.728,16.046,0,15.446c0.044-0.195,0.236-0.238,0.232-0.477
				c-0.043-0.744,0.596-0.822,1.172-0.963c0.873-1.881,0.887-4.596,2.059-6.18C3.554,6.612,2.535,6.542,2.488,5.47
				c0.666-0.365,1.084-0.971,2.119-0.973C5.712,3.55,5.652,1.46,6.929,0.683z M6.302,7.794C6.22,9.425,5.675,10.61,5.408,12.065
				c2.059-0.408,2.799-2.104,4.945-2.428c0.564-1.553,3.004-1.277,2.797-3.586C10.123,5.905,8.449,7.077,6.302,7.794z
				 M11.556,11.282c-0.068-0.066-0.359,0.117-0.234,0.238C11.386,11.587,11.679,11.403,11.556,11.282z M9.912,12.485
				c-0.406-0.006-0.611,0.184-0.703,0.482c-0.277-0.033-0.422,0.057-0.473,0.244c-0.406-0.006-0.611,0.18-0.705,0.48
				c-0.342,0.148,0.027,0.285,0,0c0.406,0.004,0.613-0.186,0.705-0.48c0.275,0.035,0.42-0.059,0.473-0.244
				C9.611,12.974,9.818,12.786,9.912,12.485c0.406,0.006,0.611-0.184,0.705-0.482C10.21,11.999,10.005,12.187,9.912,12.485z
				 M7.326,14.173c0-0.131-0.193-0.266-0.236,0.004C7.091,14.308,7.285,14.444,7.326,14.173z M6.388,14.897
				c-0.004-0.24-0.418-0.295-0.473,0.004C5.966,15.187,6.179,15.044,6.388,14.897z"/>
			<path fill-rule="evenodd" clip-rule="evenodd" d="M82.094,9.962C81.387,10.017,82.333,10.942,82.094,9.962
				c0.236-0.002,0.279-0.195,0.471-0.244c-0.697,2.518-1.998,4.447-2.281,7.369c-0.525-0.037-1.047-0.086-1.186-0.223
				c-0.064-0.062,0.068-0.428-0.006-0.473c-0.127-0.076-0.572,0.129-0.711,0.008c-0.389-0.342-0.352-1.012-0.963-1.41
				c0.436-6.359,4.02-9.646,6.223-14.283c0.316-0.002,0.633-0.006,0.947-0.01c0.445-0.225,0.572,0.512,0.721,0.701
				c0.273,0.359,0.654,0.662,0.719,0.939c0.193,0.822-0.406,1.576-0.205,2.605c-1.018,0.408-0.865,1.631-1.393,2.387
				C83.756,8.304,82.458,8.786,82.094,9.962z M81.635,11.151C80.926,11.208,81.874,12.132,81.635,11.151
				C82.342,11.095,81.397,10.171,81.635,11.151z M81.409,12.099c0-0.131-0.195-0.264-0.236,0.004
				C81.174,12.233,81.368,12.37,81.409,12.099z M80.948,13.054C80.239,13.108,81.184,14.036,80.948,13.054
				C81.657,12.997,80.708,12.071,80.948,13.054z M80.719,13.767c-0.066-0.062-0.359,0.119-0.234,0.242
				C80.551,14.071,80.842,13.888,80.719,13.767z"/>
			<path fill-rule="evenodd" clip-rule="evenodd" d="M95.481,0.565c0.043,0.836,0.689,1.051,0.734,1.887
				c2.328-0.303,5.516-1.588,6.869,0.393c-0.262,0.666-0.256,1.232,0.023,1.896c-0.369,0.123-0.426-0.291-0.713-0.23
				c-0.26,0.055-0.164,0.42-0.467,0.48c-0.912,0.176-2.061,0.082-3.076,0.271c-1.301,0.242-2.287,0.736-3.543,0.754
				c-1.158,0.818-1.334,2.598-1.848,4.047c-0.381,0.072-0.408-0.219-0.713-0.229c-0.553,0.646,0.439,1.35-0.215,1.896
				c-0.041,0.992-0.752-0.131-0.938,0.723c0.041,0.277,0.434,0.193,0.713,0.229c-0.561,1.09-0.877,2.42-1.137,3.801
				c-0.77,0.148-1.104-0.148-1.662-0.217c-1.83-3.338,0.697-6.646,1.545-9.49c-0.822-0.557-2.654-0.104-3.553,0.043
				c-0.531-0.814-1-1.693-0.982-3.068c2.1-0.654,4.291,0.164,5.91-0.781c1.045-0.607,0.957-1.623,1.867-2.391
				C94.692,0.575,95.084,0.571,95.481,0.565z"/>
			<path fill-rule="evenodd" clip-rule="evenodd" d="M112.403,9.601C112.059,9.753,112.43,9.888,112.403,9.601
				c0.152-0.016,0.266-0.037,0.232-0.238c0.127,0.787-0.252,0.914-0.688,1.902c-0.361,0.818-0.537,1.793-0.918,2.379
				c-0.279,0.039-0.674-0.033-0.709,0.244c-0.203-0.041-0.221,0.096-0.234,0.24c-0.342,0.148,0.027,0.285,0,0
				c0.201,0.041,0.223-0.096,0.234-0.24c0.619,0.227-0.256,1.447-0.703,0.717c0.006,0.631,0.105,1.354-0.215,1.664
				c0.215,0.564,0.713-0.523,0.697-0.957c0.648,1.109-0.857,2.121-0.904,3.326c-1.285-0.043-1.604-1.076-2.391-1.629
				c-0.154-1.4,0.205-2.297,0.436-3.322c0.453-0.727,0.723-1.635,1.156-2.381c-0.271-0.473-1.838-0.25-2.131,0.027
				c-0.818,0.201-1.006-0.432-1.424,0.016c-1.072,1.447-1.25,3.771-1.822,5.705c-1.064-0.189-1.605-0.912-2.152-1.633
				c-0.045-1.133,0.041-2.143,0.439-2.848c-0.184-0.531-1.33-0.076-1.896-0.213c0.166-0.475,0.477-0.543,0.703-0.719
				c0.082-0.066,0.133-0.348-0.004-0.236c0.387-0.312,0.48-0.537,1.178-0.488c1.182-0.914,1.072-3.461,1.842-4.285
				c0.193-0.205,0.07-0.195,0.234-0.475c1.088-1.885,2.332-3.738,3.008-5.719c1.254-0.174,2.18,0.758,2.387,1.391
				c0.547,1.676-0.375,2.479-0.906,3.562c-0.338,0.688-0.629,1.736-0.922,2.145c-0.096,0.133-0.586,0.104-0.707,0.246
				c-0.154,0.18,0.023,0.631-0.227,0.711c1.209-0.525,2.578-1.371,4.252-0.76c0.676-0.986,1.48-1.938,2.094-3.104
				c0.615-1.17,0.699-2.879,2.09-3.342c1.602,0.543,1.076,3.035,0.756,3.781c-0.061,0.141-0.088,0.662-0.227,0.949
				c-0.084,0.182-0.594,0.297-0.703,0.482c-0.184,0.312-0.117,0.934-0.223,1.186c-0.172,0.422-0.65,0.576-0.461,0.953
				C112.801,8.589,112.438,8.935,112.403,9.601z M112.168,10.077c-0.066-0.066-0.355,0.119-0.232,0.24
				C112.002,10.382,112.293,10.198,112.168,10.077z M111.014,12.46C110.672,12.61,111.042,12.745,111.014,12.46
				C111.723,12.403,110.778,11.478,111.014,12.46z"/>
			<path fill-rule="evenodd" clip-rule="evenodd" d="M24.326,14.206C25.033,14.149,24.085,13.224,24.326,14.206
				c-0.08,0-0.16,0-0.238,0.004c-0.164-1.072,0.146-1.078,0.461-1.191c-2.285-0.357-4.205,1.666-6.129,2.439
				c0.018,1.422-0.605,2.219-1.148,3.094c-0.336-0.43-1.227-0.293-1.664-0.691c-0.119-0.105-0.984-1.98-0.971-1.883
				c-0.363-2.664,4.818-8.361,6.508-10.496c1.125-1.424,1.988-2.627,3.039-3.115c0.088-0.041,0.123-0.428,0.232-0.477
				c0.688-0.316,1.115,0.047,1.416-0.254c-0.045,0.311,0.33,0.111,0.477,0.23c0.514,0.414,0.189,0.723,1.197,0.936
				c0.557,2.266,0.521,4.533-0.158,6.633c0.117,0.996,0.949,1.264,0.74,2.594c-0.393,0.006-0.789,0.01-1.184,0.016
				c-0.475,2.111-0.84,4.328-1.105,6.643c-2.688-0.051-2.57-1.982-1.941-4.002C24.275,15.021,24.398,14.897,24.326,14.206z
				 M25.88,5.661c0.709-1.359-1.033-0.035-1.648,0.73c-0.381,0.473-0.469,1.549-1.172,0.961c-0.188,1.924-1.609,2.646-2.32,4.053
				c1.223-0.52,2.182-1.301,3.771-1.465c0.057-0.326-0.105-1.209,0.221-1.424c0.084-0.057,0.67,0.074,0.711-0.008
				C25.791,7.771,25.597,6.644,25.88,5.661z M19.353,14.265c0.441-0.037,0.787-0.166,0.941-0.486
				C19.753,13.72,19.406,13.847,19.353,14.265z"/>
			<path fill-rule="evenodd" clip-rule="evenodd" d="M74.971,8.39C74.629,8.54,74.999,8.675,74.971,8.39
				c0.656,0.094,0.021,0.744-0.469,0.477c0.658,0.623-0.182,0.605-0.461,0.955c-0.008,0.252,0.117,0.598,0.238,0.232
				c0.477-0.066,0.057,0.725,0.012,0.947c-0.246,1.215-0.584,1.438-1.16,1.908c0.27,1.67-0.453,2.365-0.668,3.561
				c-6.052-0.637-1.197-6.408-0.348-9.23c-1.596,0.15-2.41,1.852-3.287,2.406c-1.202,0.76-2.185,1.971-3.042,2.877
				c-0.99-0.24-1.047-0.049-2.129,0.025c-1.611-2.004,0.197-4.344,0.633-6.4c-1.414,0.707-2.434,2.518-3.037,3.588
				c-0.293,0.52-0.494,0.834-0.695,1.193c-0.852,1.51-1.545,2.977-2.318,4.287c-0.184-0.049-0.275-0.193-0.242-0.467
				c-0.734,0.477-0.168,1.711-0.449,2.135c-0.469-0.283-1.182-0.305-1.664-0.689c-0.33-0.268-0.926-1.16-0.965-1.41
				c-0.088-0.564,0.277-1.057,0.689-1.904c0.322-0.664,0.562-1.303,0.924-1.904c0.311-0.52,0.842-0.916,1.166-1.434
				c0.4-0.641,0.551-1.34,0.924-1.906c1.688-2.564,3.9-4.371,4.904-5.979c2.619-0.777,3.396,2.004,3.369,4.695
				c0.709,0.273,1.702-0.912,2.351-1.447c0.314-0.004,0.633-0.008,0.947-0.012c0.426-0.99,2.727-2.309,3.764-2.176
				c1.943,0.248,2.596,3.088,2.186,4.711C75.793,7.786,74.795,7.515,74.971,8.39z M74.721,7.208
				c-0.068-0.066-0.359,0.117-0.234,0.238C74.553,7.511,74.844,7.329,74.721,7.208z M73.581,11.009
				c-0.312-0.582,0.684-0.988-0.014-1.184C73.432,9.972,73.028,10.956,73.581,11.009z M74.051,10.767
				c0-0.129-0.193-0.266-0.236,0.004C73.815,10.901,74.01,11.038,74.051,10.767z M73.821,11.243
				c-0.066-0.064-0.357,0.121-0.232,0.238C73.653,11.548,73.946,11.364,73.821,11.243z"/>
			<path fill-rule="evenodd" clip-rule="evenodd" d="M42.509,6.644c0.156-0.002,0.316-0.006,0.473-0.006
				C42.919,6.341,42.511,6.403,42.509,6.644c-0.311,0.006-0.293,0.66,0.01,0.711c-0.262,0.668-0.977,0.936-1.404,1.438
				c-0.488,0.568-0.529,1.504-1.402,1.674c0.113,0.732-0.51,1.367-0.691,1.666c-0.297,0.49-0.424,1.221-0.938,0.721
				c0.039,0.277-0.033,0.672,0.246,0.707c-0.031,0.438-0.801,0.154-0.943,0.484c0.242,0.312,0.236,0.879,0.721,0.939
				c-0.789,0.395-1.898,0.93-1.395,1.91c-1.395-0.592-1.061,1.748-0.684,2.375c-0.334,0.066-0.266,0.525-0.467,0.717
				c-2.393,0.023-3.289-1.146-2.639-3.047c0.262-0.768,0.998-1.73,1.391-2.619c0.521-1.193,0.871-2.238,1.148-2.857
				c-0.646-0.457-1.578-0.619-2.613-0.678c-0.613-1.271-2.271-1.441-2.643-3.047c-0.445-1.932,0.875-3.727,1.357-5.465
				c1.312-0.494,2.498,0.014,3.322,0.67c0.141,2.447-3.049,4.867-0.631,6.641c2.863-0.088,3.879-2.756,4.922-4.322
				c0.43-0.645,0.961-0.963,1.402-1.438c0.295-0.312,0.486-0.557,0.701-0.955c0.916,0.117,1.15-0.436,2.129-0.262
				c0.564,0.539,1.109,1.098,1.207,2.117c-0.26,0.562-0.887,1.102-1.166,1.434C42.833,6.894,43.013,7.479,42.509,6.644z"/>
			<path fill-rule="evenodd" clip-rule="evenodd" d="M55.052,6.021c-0.695-0.203-0.73-0.203-1.42,0.018
				c-0.107-0.494,0.154-0.631,0.225-0.951c-2.82-0.182-4.158,1.088-5.896,1.963c1.213,1.479,3.156,2.203,4.773,3.262
				c0.416,0.852,0.615,1.926,0.514,3.307c0.188,0.49-0.488,0.551-0.703,0.721c-0.266,0.209-0.434,0.51-0.699,0.719
				c-0.236,0.186-0.582,0.246-0.941,0.482c-0.676,0.445-1.102,1.109-2.594,0.98c-1.275,1.357-2.688,1.482-4.258,0.523
				c-0.961-0.588-1.477-0.973-1.684-2.346c-0.1-0.658,0.084-0.898,0.219-1.426c1.09-0.076,1.207,0.84,1.908,1.162
				c2.08-0.309,3.607-1.158,4.947-2.189c-0.74-1.639-2.477-2.258-3.828-3.27C45.433,7.88,44.8,6.958,44.871,6.142
				c0.031-0.357,0.27-1.148,0.457-1.426c0.439-0.652,2.156-1.689,3.525-2.174c1.049-0.371,3.303-0.697,5.205-0.537
				c0.193,0.523,0.834,0.584,1.193,0.934C55.587,4.571,55.316,5.284,55.052,6.021z M47.603,16.765
				c-0.184,0.057-0.469,0.012-0.473,0.244C47.314,16.952,47.599,16.995,47.603,16.765z"/>
			<path fill-rule="evenodd" clip-rule="evenodd" d="M25.21,5.665c-0.004-0.133,0.188-0.271,0.236-0.004
				C25.369,5.663,25.289,5.663,25.21,5.665z"/>
			<path fill-rule="evenodd" clip-rule="evenodd" d="M25.21,5.665C25.449,6.646,24.501,5.72,25.21,5.665L25.21,5.665z"/>
			<path fill-rule="evenodd" clip-rule="evenodd" d="M82.565,9.718C82.538,9.435,82.907,9.569,82.565,9.718L82.565,9.718z"/>
			<path fill-rule="evenodd" clip-rule="evenodd" d="M98.934,12.13C99.721,11.548,98.37,12.931,98.934,12.13L98.934,12.13z"/>
			<path fill-rule="evenodd" clip-rule="evenodd" d="M107.241,13.687c-0.969,0.084,0.035-0.326-0.248-0.943
				C107.344,12.784,107.215,13.313,107.241,13.687z"/>
			<path fill-rule="evenodd" clip-rule="evenodd" d="M23.654,14.21C23.681,14.495,23.312,14.356,23.654,14.21L23.654,14.21z"/>
			<path fill-rule="evenodd" clip-rule="evenodd" d="M36.246,17.61C36.218,17.325,36.587,17.462,36.246,17.61L36.246,17.61z"/>
			<path fill-rule="evenodd" clip-rule="evenodd" d="M36.246,17.61C36.517,18.864,35.529,17.899,36.246,17.61L36.246,17.61z"/>
		</g>
	</g>
</g>
</svg>
