<?xml version="1.0" encoding="utf-8"?>
<!-- Generator: Adobe Illustrator 16.0.0, SVG Export Plug-In . SVG Version: 6.00 Build 0)  -->
<!DOCTYPE svg PUBLIC "-//W3C//DTD SVG 1.1//EN" "http://www.w3.org/Graphics/SVG/1.1/DTD/svg11.dtd">
<svg version="1.1" id="Layer_1" xmlns="http://www.w3.org/2000/svg" xmlns:xlink="http://www.w3.org/1999/xlink" x="0px" y="0px"
	 width="127px" height="164px" viewBox="0 0 127 164" enable-background="new 0 0 127 164" xml:space="preserve">
<g>
	<g>
		<path fill="#3C3C3C" d="M101.41,60.915l5.368-3.099l-0.5-0.866l-5.366,3.098C101.079,60.336,101.25,60.623,101.41,60.915z"/>
		<path fill="#3C3C3C" d="M21.542,81H15v1h6.567C21.56,82,21.542,81,21.542,81z"/>
		<path fill="#3C3C3C" d="M43.031,44.403l-3.005-5.205l-0.865,0.5l3.004,5.203C42.45,44.729,42.742,44.568,43.031,44.403z"/>
		<path fill="#3C3C3C" d="M64.5,38.819c0.168,0-0.5,0.011,0.5,0.013V32h-1v6.832C64,38.83,64.332,38.819,64.5,38.819z"/>
		<path fill="#3C3C3C" d="M86.022,44.901l3.004-5.203l-0.865-0.5l-3.005,5.205C85.445,44.568,85.737,44.729,86.022,44.901z"/>
		<path fill="#3C3C3C" d="M27.275,60.048l-5.367-3.099l-0.5,0.866l5.369,3.1C26.938,60.623,27.108,60.336,27.275,60.048z"/>
		<path fill="#3C3C3C" d="M100.469,103.461l5.246,3.028l0.5-0.865l-5.246-3.029C100.802,102.884,100.642,103.176,100.469,103.461z"
			/>
		<path fill="#3C3C3C" d="M106.646,81c0,0-0.018,1-0.025,1H113v-1H106.646z"/>
		<path fill="#3C3C3C" d="M84.712,118.594l3.031,5.25l0.865-0.5l-3.03-5.248C85.291,118.264,85.003,118.432,84.712,118.594z"/>
		<path fill="#3C3C3C" d="M42.609,118.095l-3.03,5.249l0.865,0.5l3.031-5.251C43.185,118.432,42.896,118.264,42.609,118.095z"/>
		<path fill="#3C3C3C" d="M64.5,123.922c-0.168,0-0.5-0.011-0.5-0.013V130h1v-6.091C64,123.911,64.668,123.922,64.5,123.922z"/>
		<path fill="#3C3C3C" d="M27.219,102.594l-5.248,3.03l0.5,0.865l5.248-3.029C27.545,103.176,27.386,102.883,27.219,102.594z"/>
	</g>
	<circle fill="#3C3C3C" cx="64.093" cy="81.371" r="8"/>
	<circle fill="none" stroke="#3C3C3C" stroke-width="3" cx="64.094" cy="81.371" r="55.371"/>
	<line fill="none" stroke="#3C3C3C" stroke-width="6" stroke-linecap="round" x1="64.094" y1="81.371" x2="92.404" y2="65.833"/>
	<line fill="none" stroke="#3C3C3C" stroke-width="6" stroke-linecap="round" x1="64.094" y1="81.371" x2="43.489" y2="66.654"/>
	<path fill="#3C3C3C" d="M100.095,124.408c-0.138-0.213-0.295-0.408-0.467-0.582c-1.854,1.555-3.816,2.982-5.866,4.285
		c0.055,0.105,0.096,0.213,0.16,0.312l10.803,16.6c0.705,1.084,1.885,1.674,3.09,1.674c0.688,0,1.385-0.193,2.004-0.596
		c1.705-1.109,2.188-3.391,1.078-5.096L100.095,124.408z"/>
	<path fill="#3C3C3C" d="M28.941,124.152c-0.057,0.072-0.122,0.137-0.174,0.215l-10.83,16.639c-1.108,1.705-0.627,3.986,1.078,5.096
		c0.619,0.402,1.316,0.596,2.006,0.596c1.203,0,2.383-0.59,3.089-1.674l10.804-16.598C32.828,127.129,30.83,125.705,28.941,124.152z
		"/>
	<path fill="none" stroke="#3C3C3C" stroke-width="3" d="M10.656,67.246C-0.045,54.663-1.137,37.151,8.786,26.154
		c10.951-12.137,31.173-11.743,45.167,0.883"/>
	<path fill="none" stroke="#3C3C3C" stroke-width="3" d="M74.361,27.128c12.717-11.691,31.081-13.115,42.402-2.784
		c11.409,10.409,11.586,29.034,0.856,42.802"/>
</g>
</svg>
