<?xml version="1.0" encoding="utf-8"?>
<!-- Generator: Adobe Illustrator 16.0.0, SVG Export Plug-In . SVG Version: 6.00 Build 0)  -->
<!DOCTYPE svg PUBLIC "-//W3C//DTD SVG 1.1//EN" "http://www.w3.org/Graphics/SVG/1.1/DTD/svg11.dtd">
<svg version="1.1" id="Layer_1" xmlns="http://www.w3.org/2000/svg" xmlns:xlink="http://www.w3.org/1999/xlink" x="0px" y="0px"
	 width="163px" height="164px" viewBox="0 0 163 164" enable-background="new 0 0 163 164" xml:space="preserve">
<circle fill="#3C3C3C" cx="17.231" cy="94.574" r="3.8"/>
<polygon fill="none" stroke="#3C3C3C" stroke-width="3" stroke-linejoin="round" points="41.429,121.036 1.432,136.837 
	1.432,42.521 41.429,26.719 "/>
<polygon fill="none" stroke="#3C3C3C" stroke-width="3" stroke-linejoin="round" points="121.434,121.036 81.436,136.837 
	81.436,42.521 121.434,26.719 "/>
<polygon fill="none" stroke="#3C3C3C" stroke-width="3" stroke-linejoin="round" points="121.434,121.036 161.432,136.837 
	161.432,42.521 121.434,26.719 "/>
<polygon fill="none" stroke="#3C3C3C" stroke-width="3" stroke-linejoin="round" points="41.429,121.036 81.426,136.837 
	81.426,42.521 41.429,26.719 "/>
<line fill="none" stroke="#3C3C3C" stroke-width="3" x1="136.527" y1="54.041" x2="149.382" y2="66.893"/>
<line fill="none" stroke="#3C3C3C" stroke-width="3" x1="149.382" y1="54.041" x2="136.527" y2="66.893"/>
<path fill="none" stroke="#3C3C3C" stroke-width="3" stroke-linecap="round" stroke-linejoin="round" d="M17.23,94.345
	c-1.428-7.856,3.798-15.604,13.937-17.511c10.039-1.889,16.334-3.167,22.754,6.709c2.115,3.253,9.658,21.438,14.253,9.961
	c3.405-8.507,0.88-15.852,8.345-23.306C94.954,51.791,93.92,96.187,109,92.5c8.99-2.197,11.887-14.148,21.521-6.324
	c6.444,5.236,12.32-6.844,12.045-13.879"/>
<g>
	<defs>
		<polygon id="SVGID_3_" points="41.429,121.036 1.432,136.837 1.432,42.521 41.429,26.719 		"/>
	</defs>
	<clipPath id="SVGID_2_">
		<use xlink:href="#SVGID_3_"  overflow="visible"/>
	</clipPath>
	<g clip-path="url(#SVGID_2_)">
		<line fill="none" stroke="#3C3C3C" x1="-64.354" y1="95.362" x2="70.702" y2="-39.696"/>
		<line fill="none" stroke="#3C3C3C" x1="-60.112" y1="99.604" x2="74.946" y2="-35.452"/>
		<line fill="none" stroke="#3C3C3C" x1="-55.87" y1="103.847" x2="79.188" y2="-31.21"/>
		<line fill="none" stroke="#3C3C3C" x1="-51.628" y1="108.089" x2="83.431" y2="-26.968"/>
		<line fill="none" stroke="#3C3C3C" x1="-47.384" y1="112.333" x2="87.673" y2="-22.726"/>
		<line fill="none" stroke="#3C3C3C" x1="-43.142" y1="116.575" x2="91.915" y2="-18.483"/>
		<line fill="none" stroke="#3C3C3C" x1="-38.899" y1="120.817" x2="96.159" y2="-14.239"/>
		<line fill="none" stroke="#3C3C3C" x1="-34.657" y1="125.06" x2="100.401" y2="-9.997"/>
		<line fill="none" stroke="#3C3C3C" x1="-30.413" y1="129.304" x2="104.644" y2="-5.755"/>
		<line fill="none" stroke="#3C3C3C" x1="-26.171" y1="133.546" x2="108.886" y2="-1.513"/>
		<line fill="none" stroke="#3C3C3C" x1="-21.929" y1="137.788" x2="113.13" y2="2.731"/>
		<line fill="none" stroke="#3C3C3C" x1="-17.687" y1="142.03" x2="117.372" y2="6.974"/>
		<line fill="none" stroke="#3C3C3C" x1="-13.442" y1="146.274" x2="121.614" y2="11.216"/>
		<line fill="none" stroke="#3C3C3C" x1="-9.2" y1="150.517" x2="125.856" y2="15.458"/>
		<line fill="none" stroke="#3C3C3C" x1="-4.958" y1="154.759" x2="130.101" y2="19.702"/>
		<line fill="none" stroke="#3C3C3C" x1="-0.716" y1="159.001" x2="134.343" y2="23.944"/>
		<line fill="none" stroke="#3C3C3C" x1="3.526" y1="163.243" x2="138.585" y2="28.187"/>
		<line fill="none" stroke="#3C3C3C" x1="7.771" y1="167.487" x2="142.827" y2="32.429"/>
		<line fill="none" stroke="#3C3C3C" x1="12.013" y1="171.729" x2="147.069" y2="36.671"/>
		<line fill="none" stroke="#3C3C3C" x1="16.255" y1="175.972" x2="151.313" y2="40.915"/>
		<line fill="none" stroke="#3C3C3C" x1="20.497" y1="180.214" x2="155.556" y2="45.157"/>
		<line fill="none" stroke="#3C3C3C" x1="24.741" y1="184.458" x2="159.798" y2="49.399"/>
		<line fill="none" stroke="#3C3C3C" x1="28.983" y1="188.7" x2="164.04" y2="53.642"/>
		<line fill="none" stroke="#3C3C3C" x1="33.226" y1="192.942" x2="168.284" y2="57.886"/>
		<line fill="none" stroke="#3C3C3C" x1="37.468" y1="197.185" x2="172.526" y2="62.128"/>
		<line fill="none" stroke="#3C3C3C" x1="41.712" y1="201.429" x2="176.769" y2="66.37"/>
		<line fill="none" stroke="#3C3C3C" x1="45.954" y1="205.671" x2="181.011" y2="70.612"/>
		<line fill="none" stroke="#3C3C3C" x1="50.196" y1="209.913" x2="185.255" y2="74.856"/>
		<line fill="none" stroke="#3C3C3C" x1="54.438" y1="214.155" x2="189.497" y2="79.099"/>
	</g>
	<use xlink:href="#SVGID_3_"  overflow="visible" fill="none" stroke="#3C3C3C" stroke-miterlimit="10"/>
</g>
<g>
	<defs>
		<polygon id="SVGID_5_" points="121.434,121.036 81.436,136.837 81.436,42.521 121.434,26.719 		"/>
	</defs>
	<clipPath id="SVGID_4_">
		<use xlink:href="#SVGID_5_"  overflow="visible"/>
	</clipPath>
	<g clip-path="url(#SVGID_4_)">
		<line fill="none" stroke="#3C3C3C" x1="-64.354" y1="95.362" x2="70.702" y2="-39.696"/>
		<line fill="none" stroke="#3C3C3C" x1="-60.112" y1="99.604" x2="74.946" y2="-35.452"/>
		<line fill="none" stroke="#3C3C3C" x1="-55.87" y1="103.847" x2="79.188" y2="-31.21"/>
		<line fill="none" stroke="#3C3C3C" x1="-51.628" y1="108.089" x2="83.431" y2="-26.968"/>
		<line fill="none" stroke="#3C3C3C" x1="-47.384" y1="112.333" x2="87.673" y2="-22.726"/>
		<line fill="none" stroke="#3C3C3C" x1="-43.142" y1="116.575" x2="91.915" y2="-18.483"/>
		<line fill="none" stroke="#3C3C3C" x1="-38.899" y1="120.817" x2="96.159" y2="-14.239"/>
		<line fill="none" stroke="#3C3C3C" x1="-34.657" y1="125.06" x2="100.401" y2="-9.997"/>
		<line fill="none" stroke="#3C3C3C" x1="-30.413" y1="129.304" x2="104.644" y2="-5.755"/>
		<line fill="none" stroke="#3C3C3C" x1="-26.171" y1="133.546" x2="108.886" y2="-1.513"/>
		<line fill="none" stroke="#3C3C3C" x1="-21.929" y1="137.788" x2="113.13" y2="2.731"/>
		<line fill="none" stroke="#3C3C3C" x1="-17.687" y1="142.03" x2="117.372" y2="6.974"/>
		<line fill="none" stroke="#3C3C3C" x1="-13.442" y1="146.274" x2="121.614" y2="11.216"/>
		<line fill="none" stroke="#3C3C3C" x1="-9.2" y1="150.517" x2="125.856" y2="15.458"/>
		<line fill="none" stroke="#3C3C3C" x1="-4.958" y1="154.759" x2="130.101" y2="19.702"/>
		<line fill="none" stroke="#3C3C3C" x1="-0.716" y1="159.001" x2="134.343" y2="23.944"/>
		<line fill="none" stroke="#3C3C3C" x1="3.526" y1="163.243" x2="138.585" y2="28.187"/>
		<line fill="none" stroke="#3C3C3C" x1="7.771" y1="167.487" x2="142.827" y2="32.429"/>
		<line fill="none" stroke="#3C3C3C" x1="12.013" y1="171.729" x2="147.069" y2="36.671"/>
		<line fill="none" stroke="#3C3C3C" x1="16.255" y1="175.972" x2="151.313" y2="40.915"/>
		<line fill="none" stroke="#3C3C3C" x1="20.497" y1="180.214" x2="155.556" y2="45.157"/>
		<line fill="none" stroke="#3C3C3C" x1="24.741" y1="184.458" x2="159.798" y2="49.399"/>
		<line fill="none" stroke="#3C3C3C" x1="28.983" y1="188.7" x2="164.04" y2="53.642"/>
		<line fill="none" stroke="#3C3C3C" x1="33.226" y1="192.942" x2="168.284" y2="57.886"/>
		<line fill="none" stroke="#3C3C3C" x1="37.468" y1="197.185" x2="172.526" y2="62.128"/>
		<line fill="none" stroke="#3C3C3C" x1="41.712" y1="201.429" x2="176.769" y2="66.37"/>
		<line fill="none" stroke="#3C3C3C" x1="45.954" y1="205.671" x2="181.011" y2="70.612"/>
		<line fill="none" stroke="#3C3C3C" x1="50.196" y1="209.913" x2="185.255" y2="74.856"/>
		<line fill="none" stroke="#3C3C3C" x1="54.438" y1="214.155" x2="189.497" y2="79.099"/>
	</g>
	<use xlink:href="#SVGID_5_"  overflow="visible" fill="none" stroke="#3C3C3C" stroke-miterlimit="10"/>
</g>
</svg>
