<?xml version="1.0" encoding="utf-8"?>
<!-- Generator: Adobe Illustrator 16.0.0, SVG Export Plug-In . SVG Version: 6.00 Build 0)  -->
<!DOCTYPE svg PUBLIC "-//W3C//DTD SVG 1.1//EN" "http://www.w3.org/Graphics/SVG/1.1/DTD/svg11.dtd">
<svg version="1.1" id="Layer_1" xmlns="http://www.w3.org/2000/svg" xmlns:xlink="http://www.w3.org/1999/xlink" x="0px" y="0px"
	 width="94px" height="164px" viewBox="0 0 94 164" enable-background="new 0 0 94 164" xml:space="preserve">
<path fill="none" stroke="#3C3C3C" stroke-width="3" d="M92.388,146c0,8.837-7.163,16-16,16h-58.88c-8.836,0-16-7.163-16-16V18
	c0-8.837,7.164-16,16-16h58.88c8.837,0,16,7.163,16,16V146z"/>
<rect x="9.5" y="28.5" fill="none" stroke="#3C3C3C" stroke-width="3" width="75" height="107"/>
<circle fill="#3C3C3C" cx="46.948" cy="148.102" r="8"/>
<path fill="#3C3C3C" d="M55.822,16.602c0,0.828-0.672,1.5-1.5,1.5h-14.75c-0.828,0-1.5-0.672-1.5-1.5l0,0c0-0.828,0.672-1.5,1.5-1.5
	h14.75C55.15,15.102,55.822,15.773,55.822,16.602L55.822,16.602z"/>
<circle fill="#3C3C3C" cx="33.65" cy="16.564" r="1.463"/>
<g>
	<defs>
		<rect id="SVGID_1_" x="9.572" y="28.852" width="73.428" height="106.25"/>
	</defs>
	<clipPath id="SVGID_2_">
		<use xlink:href="#SVGID_1_"  overflow="visible"/>
	</clipPath>
	<g clip-path="url(#SVGID_2_)">
		<line fill="none" stroke="#3C3C3C" x1="-83.688" y1="102.029" x2="51.369" y2="-33.029"/>
		<line fill="none" stroke="#3C3C3C" x1="-79.445" y1="106.271" x2="55.613" y2="-28.785"/>
		<line fill="none" stroke="#3C3C3C" x1="-75.203" y1="110.514" x2="59.855" y2="-24.543"/>
		<line fill="none" stroke="#3C3C3C" x1="-70.961" y1="114.756" x2="64.098" y2="-20.301"/>
		<line fill="none" stroke="#3C3C3C" x1="-66.717" y1="119" x2="68.34" y2="-16.059"/>
		<line fill="none" stroke="#3C3C3C" x1="-62.475" y1="123.242" x2="72.582" y2="-11.816"/>
		<line fill="none" stroke="#3C3C3C" x1="-58.232" y1="127.484" x2="76.826" y2="-7.572"/>
		<line fill="none" stroke="#3C3C3C" x1="-53.99" y1="131.727" x2="81.068" y2="-3.33"/>
		<line fill="none" stroke="#3C3C3C" x1="-49.746" y1="135.971" x2="85.311" y2="0.912"/>
		<line fill="none" stroke="#3C3C3C" x1="-45.504" y1="140.213" x2="89.553" y2="5.154"/>
		<line fill="none" stroke="#3C3C3C" x1="-41.262" y1="144.455" x2="93.797" y2="9.398"/>
		<line fill="none" stroke="#3C3C3C" x1="-37.02" y1="148.697" x2="98.039" y2="13.641"/>
		<line fill="none" stroke="#3C3C3C" x1="-32.775" y1="152.941" x2="102.281" y2="17.883"/>
		<line fill="none" stroke="#3C3C3C" x1="-28.533" y1="157.184" x2="106.523" y2="22.125"/>
		<line fill="none" stroke="#3C3C3C" x1="-24.291" y1="161.426" x2="110.768" y2="26.369"/>
		<line fill="none" stroke="#3C3C3C" x1="-20.049" y1="165.668" x2="115.01" y2="30.611"/>
		<line fill="none" stroke="#3C3C3C" x1="-15.807" y1="169.91" x2="119.252" y2="34.854"/>
		<line fill="none" stroke="#3C3C3C" x1="-11.562" y1="174.154" x2="123.494" y2="39.096"/>
		<line fill="none" stroke="#3C3C3C" x1="-7.32" y1="178.396" x2="127.736" y2="43.338"/>
		<line fill="none" stroke="#3C3C3C" x1="-3.078" y1="182.639" x2="131.98" y2="47.582"/>
		<line fill="none" stroke="#3C3C3C" x1="1.164" y1="186.881" x2="136.223" y2="51.824"/>
		<line fill="none" stroke="#3C3C3C" x1="5.408" y1="191.125" x2="140.465" y2="56.066"/>
		<line fill="none" stroke="#3C3C3C" x1="9.65" y1="195.367" x2="144.707" y2="60.309"/>
		<line fill="none" stroke="#3C3C3C" x1="13.893" y1="199.609" x2="148.951" y2="64.553"/>
		<line fill="none" stroke="#3C3C3C" x1="18.135" y1="203.852" x2="153.193" y2="68.795"/>
		<line fill="none" stroke="#3C3C3C" x1="22.379" y1="208.096" x2="157.436" y2="73.037"/>
		<line fill="none" stroke="#3C3C3C" x1="26.621" y1="212.338" x2="161.678" y2="77.279"/>
		<line fill="none" stroke="#3C3C3C" x1="30.863" y1="216.58" x2="165.922" y2="81.523"/>
		<line fill="none" stroke="#3C3C3C" x1="35.105" y1="220.822" x2="170.164" y2="85.766"/>
	</g>
</g>
</svg>
