<?xml version="1.0" encoding="utf-8"?>
<!-- Generator: Adobe Illustrator 14.0.0, SVG Export Plug-In . SVG Version: 6.00 Build 43363)  -->
<!DOCTYPE svg PUBLIC "-//W3C//DTD SVG 1.1//EN" "http://www.w3.org/Graphics/SVG/1.1/DTD/svg11.dtd">
<svg version="1.1" id="Layer_1" xmlns="http://www.w3.org/2000/svg" xmlns:xlink="http://www.w3.org/1999/xlink" x="0px" y="0px"
	 width="32px" height="28px" viewBox="0 0 32 28" enable-background="new 0 0 32 28" xml:space="preserve">
<g>
	<path fill="#FFFFFF" d="M16.455,14.345l-1.153,0.589c-0.477,0.239-4.638,2.438-4.96,5.425c-0.098,0.896,0.117,2.227,1.682,3.509
		l0.162,0.131l0.203,0.061c0.05,0.015,0.517,0.146,1.14,0.146c1.177,0,2.191-0.467,2.856-1.32c1.124-1.438,1.249-3.819,0.385-7.281
		L16.455,14.345z"/>
	<path fill="#FFFFFF" d="M25.388,6.854c-0.156,0-0.322,0-0.499,0.005c-1.43-3.682-4.953-6.159-8.955-6.159
		c-3.96,0-7.46,2.4-8.91,5.982C6.893,6.671,6.757,6.664,6.619,6.664C3.031,6.664,0,9.866,0,13.657c0,3.433,2.706,7.256,6.591,7.256
		h1.143c0.006-0.108,0.008-0.222,0.019-0.323c0.095-0.873,0.375-1.693,0.776-2.454H6.591c-2.148,0-3.814-2.407-3.814-4.479
		c0-2.208,1.831-4.217,3.843-4.217c0.328,0,0.669,0.079,0.989,0.165L8.963,9.96l0.346-1.356c0.767-3.021,3.492-5.127,6.625-5.127
		c3.141,0,5.87,2.155,6.641,5.242l0.35,1.416l1.394-0.419c0.269-0.078,0.613-0.087,1.07-0.087c2.079,0,3.837,1.846,3.837,4.028
		c0,2.029-1.636,4.479-3.666,4.479h-5.711c0.087,1.006,0.09,1.933,0.003,2.777h5.708c3.687,0,6.441-3.832,6.441-7.256
		C32,9.972,28.973,6.854,25.388,6.854z"/>
</g>
</svg>
